HIERARCHY
ROOT Root
{
	OFFSET 0.0000 0.0000 0.0000
	CHANNELS 6 Xposition Yposition Zposition Zrotation Xrotation Yrotation
	JOINT Spine01
	{
		OFFSET 0.0000 -16.7008 118.8322
		CHANNELS 6 Xposition Yposition Zposition Zrotation Xrotation Yrotation
		JOINT Spine02
		{
			OFFSET 0.0000 11.8586 169.5859
			CHANNELS 6 Xposition Yposition Zposition Zrotation Xrotation Yrotation
			JOINT LeftShoulder
			{
				OFFSET 83.0000 21.5583 44.2746
				CHANNELS 6 Xposition Yposition Zposition Zrotation Xrotation Yrotation
				JOINT LeftArm
				{
					OFFSET 0.0000 -111.4369 141.3570
					CHANNELS 6 Xposition Yposition Zposition Zrotation Xrotation Yrotation
					JOINT LeftForeArm
					{
						OFFSET 0.0000 -172.4081 -79.8464
						CHANNELS 6 Xposition Yposition Zposition Zrotation Xrotation Yrotation
						JOINT LeftWrist
						{
							OFFSET 0.0000 -209.8784 7.1457
							CHANNELS 6 Xposition Yposition Zposition Zrotation Xrotation Yrotation
							JOINT LeftHand
							{
								OFFSET 0.0000 -64.9257 26.1658
								CHANNELS 6 Xposition Yposition Zposition Zrotation Xrotation Yrotation
								End Site
								{
									OFFSET 0.0000 -20.5704 56.3636
								}
							}
						}
					}
				}
			}
			JOINT RightShoulder
			{
				OFFSET -83.0000 21.5583 44.2746
				CHANNELS 6 Xposition Yposition Zposition Zrotation Xrotation Yrotation
				JOINT RightArm
				{
					OFFSET 0.0000 -111.4369 141.3570
					CHANNELS 6 Xposition Yposition Zposition Zrotation Xrotation Yrotation
					JOINT RightForeArm
					{
						OFFSET 0.0000 -172.4081 -79.8464
						CHANNELS 6 Xposition Yposition Zposition Zrotation Xrotation Yrotation
						JOINT RightWrist
						{
							OFFSET 0.0000 -209.8784 7.1457
							CHANNELS 6 Xposition Yposition Zposition Zrotation Xrotation Yrotation
							JOINT RightHand
							{
								OFFSET 0.0000 -64.9257 26.1658
								CHANNELS 6 Xposition Yposition Zposition Zrotation Xrotation Yrotation
								End Site
								{
									OFFSET 0.0000 -20.5704 56.3636
								}
							}
						}
					}
				}
			}
			JOINT Neck01
			{
				OFFSET 0.0000 4.1879 119.9269
				CHANNELS 6 Xposition Yposition Zposition Zrotation Xrotation Yrotation
				JOINT Neck02
				{
					OFFSET 0.0000 -14.3102 88.8550
					CHANNELS 6 Xposition Yposition Zposition Zrotation Xrotation Yrotation
					JOINT Neck03
					{
						OFFSET 0.0000 72.0997 53.8668
						CHANNELS 6 Xposition Yposition Zposition Zrotation Xrotation Yrotation
						JOINT Neck04
						{
							OFFSET 0.0000 88.9597 -13.6445
							CHANNELS 6 Xposition Yposition Zposition Zrotation Xrotation Yrotation
							JOINT Head
							{
								OFFSET 0.0000 19.3735 72.4546
								CHANNELS 6 Xposition Yposition Zposition Zrotation Xrotation Yrotation
								End Site
								{
									OFFSET 0.0000 -28.2512 167.6361
								}
								JOINT LeftEar
								{
									OFFSET 45.0000 62.4894 -9.7509
									CHANNELS 6 Xposition Yposition Zposition Zrotation Xrotation Yrotation
									End Site
									{
										OFFSET 23.1256 59.6428 28.4242
									}
								}
								JOINT RightEar
								{
									OFFSET -45.0000 62.4894 -9.7509
									CHANNELS 6 Xposition Yposition Zposition Zrotation Xrotation Yrotation
									End Site
									{
										OFFSET -23.1256 59.6428 28.4242
									}
								}
							}
						}
					}
				}
			}
		}
	}
	JOINT LeftLeg
	{
		OFFSET 75.0000 -65.3041 -110.1607
		CHANNELS 6 Xposition Yposition Zposition Zrotation Xrotation Yrotation
		JOINT LeftLowerLeg
		{
			OFFSET 0.0000 -209.4885 14.6489
			CHANNELS 6 Xposition Yposition Zposition Zrotation Xrotation Yrotation
			JOINT LeftAnkle
			{
				OFFSET 0.0000 -168.5298 -141.4133
				CHANNELS 6 Xposition Yposition Zposition Zrotation Xrotation Yrotation
				JOINT LeftFoot
				{
					OFFSET 0.0000 -96.5926 25.8819
					CHANNELS 6 Xposition Yposition Zposition Zrotation Xrotation Yrotation
					End Site
					{
						OFFSET 0.0000 -19.5341 56.7311
					}
				}
			}
		}
	}
	JOINT RightLeg
	{
		OFFSET -75.0000 -65.3041 -110.1607
		CHANNELS 6 Xposition Yposition Zposition Zrotation Xrotation Yrotation
		JOINT RightLowerLeg
		{
			OFFSET 0.0000 -209.4885 14.6489
			CHANNELS 6 Xposition Yposition Zposition Zrotation Xrotation Yrotation
			JOINT RightAnkle
			{
				OFFSET 0.0000 -168.5298 -141.4133
				CHANNELS 6 Xposition Yposition Zposition Zrotation Xrotation Yrotation
				JOINT RightFoot
				{
					OFFSET 0.0000 -96.5926 25.8819
					CHANNELS 6 Xposition Yposition Zposition Zrotation Xrotation Yrotation
					End Site
					{
						OFFSET 0.0000 -19.5341 56.7311
					}
				}
			}
		}
	}
	JOINT TailBase
	{
		OFFSET 0.0000 -22.9100 -124.3991
		CHANNELS 6 Xposition Yposition Zposition Zrotation Xrotation Yrotation
		JOINT Tail1
		{
			OFFSET 0.0000 0.0000 -67.0000
			CHANNELS 6 Xposition Yposition Zposition Zrotation Xrotation Yrotation
			JOINT Tail2
			{
				OFFSET 0.0000 0.0000 -67.0000
				CHANNELS 6 Xposition Yposition Zposition Zrotation Xrotation Yrotation
				JOINT Tail3
				{
					OFFSET 0.0000 0.0000 -67.0000
					CHANNELS 6 Xposition Yposition Zposition Zrotation Xrotation Yrotation
					JOINT Tail4
					{
						OFFSET 0.0000 0.0000 -67.0000
						CHANNELS 6 Xposition Yposition Zposition Zrotation Xrotation Yrotation
						JOINT Tail5
						{
							OFFSET 0.0000 0.0000 -67.0000
							CHANNELS 6 Xposition Yposition Zposition Zrotation Xrotation Yrotation
							JOINT Tail6
							{
								OFFSET 0.0000 0.0000 -67.0000
								CHANNELS 6 Xposition Yposition Zposition Zrotation Xrotation Yrotation
								End Site
								{
									OFFSET 0.0000 0.0000 -67.0000
								}
							}
						}
					}
				}
			}
		}
	}
}
MOTION
Frames: 5
Frame Time: 0.008342
0.0000 0.0000 0.0000 0.0000 0.0000 0.0000 0.0000 -16.7008 118.8322 0.0000 0.0000 0.0000 0.0000 11.8586 169.5859 0.0000 0.0000 0.0000 83.0000 21.5583 44.2746 0.0000 0.0000 0.0000 0.0000 -111.4369 141.3570 0.0000 0.0000 0.0000 0.0000 -172.4081 -79.8464 0.0000 0.0000 0.0000 0.0000 -209.8784 7.1457 0.0000 0.0000 0.0000 0.0000 -64.9257 26.1658 0.0000 0.0000 0.0000 -83.0000 21.5583 44.2746 0.0000 0.0000 0.0000 0.0000 -111.4369 141.3570 0.0000 0.0000 0.0000 0.0000 -172.4081 -79.8464 0.0000 0.0000 0.0000 0.0000 -209.8784 7.1457 0.0000 0.0000 0.0000 0.0000 -64.9257 26.1658 0.0000 0.0000 0.0000 0.0000 4.1879 119.9269 0.0000 0.0000 0.0000 0.0000 -14.3102 88.8550 0.0000 0.0000 0.0000 0.0000 72.0997 53.8668 0.0000 0.0000 0.0000 0.0000 88.9597 -13.6445 0.0000 0.0000 0.0000 0.0000 19.3735 72.4546 0.0000 0.0000 0.0000 45.0000 62.4894 -9.7509 0.0000 0.0000 0.0000 -45.0000 62.4894 -9.7509 0.0000 0.0000 0.0000 75.0000 -65.3041 -110.1607 0.0000 0.0000 0.0000 0.0000 -209.4885 14.6489 0.0000 0.0000 0.0000 0.0000 -168.5298 -141.4133 0.0000 0.0000 0.0000 0.0000 -96.5926 25.8819 0.0000 0.0000 0.0000 -75.0000 -65.3041 -110.1607 0.0000 0.0000 0.0000 0.0000 -209.4885 14.6489 0.0000 0.0000 0.0000 0.0000 -168.5298 -141.4133 0.0000 0.0000 0.0000 0.0000 -96.5926 25.8819 0.0000 0.0000 0.0000 0.0000 -22.9100 -124.3991 0.0000 0.0000 0.0000 0.0000 0.0000 -67.0000 0.0000 0.0000 0.0000 0.0000 0.0000 -67.0000 0.0000 0.0000 0.0000 0.0000 0.0000 -67.0000 0.0000 0.0000 0.0000 0.0000 0.0000 -67.0000 0.0000 0.0000 0.0000 0.0000 0.0000 -67.0000 0.0000 0.0000 0.0000 0.0000 0.0000 -67.0000 0.0000 0.0000 0.0000 
1584.2700 565.8420 -632.2670 -9.8575 3.2577 -34.4111 0.0000 -16.7008 118.8322 5.2398 7.2388 -5.5845 0.0000 11.8586 169.5859 3.3189 7.2362 -4.8548 62.0445 28.7893 25.4938 31.8832 -13.0545 3.6723 -0.0000 -111.4369 141.3570 -36.9696 1.0328 -10.6365 -0.0000 -172.4081 -79.8464 -0.0285 -45.3281 0.5683 -0.0000 -209.8784 7.1457 -7.8865 36.5276 -0.3416 0.0000 -64.9257 26.1658 -35.4032 76.3046 37.5233 -65.7892 23.3836 61.3596 -4.0663 0.8265 -10.7201 -0.0000 -111.4369 141.3570 17.8128 7.7077 15.0207 0.0000 -172.4081 -79.8464 -0.6190 -6.8191 18.2929 -0.0000 -209.8784 7.1457 -0.2650 -10.4086 -0.0091 0.0000 -64.9257 26.1658 3.0203 -0.7519 -1.0636 -0.0000 4.1879 119.9269 0.8263 -2.7002 -15.1077 0.0000 -14.3102 88.8550 15.7103 36.4100 -0.4931 0.0000 72.0997 53.8668 -2.4375 6.2527 -9.4130 -0.0000 88.9597 -13.6445 0.0739 -21.6038 -5.3726 0.0000 19.3735 72.4546 2.1143 -2.7926 -25.7304 62.5457 56.2346 -1.8670 -9.8296 9.1325 -0.3694 -37.5767 64.1816 -6.8600 5.4319 6.9188 6.3838 75.0000 -65.3041 -110.1607 16.0164 -23.3723 20.6518 -0.0000 -209.4885 14.6489 -0.0000 -6.5378 0.0000 0.0000 -168.5298 -141.4133 0.0000 -6.0853 -0.0000 0.0000 -96.5926 25.8819 -1.7238 26.1929 1.2938 -75.0000 -65.3041 -110.1607 13.9043 19.3113 2.3608 0.0000 -209.4885 14.6489 0.0000 -21.4774 0.0000 -0.0000 -168.5298 -141.4133 -0.0000 8.9512 0.0000 0.0000 -96.5926 25.8819 -13.7888 -11.9485 1.8274 0.0000 -22.9100 -124.3991 0.1795 -27.1588 0.3087 -0.0000 0.0000 -67.0000 1.7864 -19.6909 5.2883 0.0000 -0.0000 -67.0000 -0.7254 3.5450 11.5725 -0.0000 0.0000 -67.0000 0.0193 -0.1416 7.7449 0.0000 -0.0000 -67.0000 -1.9434 9.5381 11.5726 0.0000 0.0000 -67.0000 -13.9603 17.3592 39.8008 0.0000 0.0000 -67.0000 -2.7232 18.8987 8.3543 
1577.2300 565.9540 -617.9770 -11.0568 3.8087 -35.1228 -0.0000 -16.7008 118.8322 6.2106 7.7525 -5.8358 0.0000 11.8586 169.5859 3.2800 6.9215 -5.4183 59.3709 29.9855 27.2987 27.6898 -10.4589 5.5000 0.0000 -111.4369 141.3570 -34.8474 -5.3928 -11.9719 -0.0000 -172.4081 -79.8464 0.1332 -42.5049 -2.7956 -0.0000 -209.8784 7.1457 -6.6717 28.6657 -0.2632 0.0000 -64.9257 26.1658 -29.5070 71.1260 31.5460 -65.8857 22.5848 61.9087 -2.5799 1.7431 -11.3781 -0.0000 -111.4369 141.3570 16.6463 7.6966 15.5535 0.0000 -172.4081 -79.8464 -0.6586 -4.9621 19.5973 -0.0000 -209.8784 7.1457 0.4079 -10.1221 0.0140 0.0000 -64.9257 26.1658 1.6913 -2.4230 -0.5454 -0.0000 4.1879 119.9269 1.2536 -2.5226 -14.9645 0.0000 -14.3102 88.8550 14.9199 36.0763 0.2939 0.0000 72.0997 53.8668 -2.5294 5.9377 -9.3396 0.0000 88.9597 -13.6445 0.1228 -21.0397 -5.1252 -0.0000 19.3735 72.4546 2.3399 -3.1899 -25.1750 62.5966 56.4277 -1.9877 -9.9984 9.8293 -0.5014 -37.6535 64.6025 -6.8295 5.5571 7.0402 6.4024 75.0000 -65.3041 -110.1607 17.1037 -22.1896 19.9662 0.0000 -209.4885 14.6489 0.0000 -7.5375 0.0000 0.0000 -168.5298 -141.4133 -0.0000 -4.3101 0.0000 0.0000 -96.5926 25.8819 -1.6908 23.1771 1.2009 -75.0000 -65.3041 -110.1607 14.6222 20.9308 1.9773 -0.0000 -209.4885 14.6489 0.0000 -21.9445 0.0000 0.0000 -168.5298 -141.4133 -0.0000 12.8038 -0.0000 0.0000 -96.5926 25.8819 -14.1354 -14.1539 1.2902 -0.0000 -22.9100 -124.3991 -0.1871 -25.6086 -0.3347 0.0000 -0.0000 -67.0000 1.8861 -21.1396 5.2173 0.0000 0.0000 -67.0000 -0.7247 3.4719 11.7981 -0.0000 -0.0000 -67.0000 0.0768 -0.5164 8.4558 0.0000 0.0000 -67.0000 -2.0525 9.9013 11.7731 0.0000 0.0000 -67.0000 -13.7690 16.8452 40.2185 0.0000 -0.0000 -67.0000 -3.0386 19.1386 9.1970 
1569.6600 566.4380 -603.5680 -11.8996 4.3917 -35.6180 0.0000 -16.7008 118.8322 6.9162 8.0628 -6.3708 0.0000 11.8586 169.5859 3.1314 6.5826 -5.9810 57.5597 30.7417 29.5474 23.7555 -8.3444 7.0508 -0.0000 -111.4369 141.3570 -32.3317 -10.6979 -13.0636 -0.0000 -172.4081 -79.8464 0.2613 -39.5324 -5.7634 0.0000 -209.8784 7.1457 -4.5863 23.5291 -0.1727 0.0000 -64.9257 26.1658 -23.9164 59.5375 25.3158 -65.7921 21.7031 62.5558 -1.0229 2.7318 -12.0742 0.0000 -111.4369 141.3570 15.4352 7.5498 16.0068 0.0000 -172.4081 -79.8464 -0.7003 -3.0004 20.9732 0.0000 -209.8784 7.1457 1.0951 -9.7263 0.0376 -0.0000 -64.9257 26.1658 0.3917 -4.1859 -0.1140 0.0000 4.1879 119.9269 1.5883 -2.2733 -14.7546 0.0000 -14.3102 88.8550 14.0545 35.6261 1.0919 -0.0000 72.0997 53.8668 -2.5972 5.6050 -9.1502 0.0000 88.9597 -13.6445 0.4259 -20.6918 -4.5544 0.0000 19.3735 72.4546 2.6769 -3.2957 -24.8779 62.4140 56.0847 -1.9834 -10.8358 10.0787 -0.2696 -37.6281 64.8941 -6.5949 5.5652 7.0634 6.4085 75.0000 -65.3041 -110.1607 17.7995 -20.1634 19.4692 0.0000 -209.4885 14.6489 0.0000 -7.3793 -0.0000 0.0000 -168.5298 -141.4133 -0.0000 -6.6870 0.0000 -0.0000 -96.5926 25.8819 -2.0994 22.3257 1.4668 -75.0000 -65.3041 -110.1607 15.2573 22.0106 1.1805 -0.0000 -209.4885 14.6489 -0.0000 -21.8552 0.0000 0.0000 -168.5298 -141.4133 0.0000 16.0011 0.0000 -0.0000 -96.5926 25.8819 -13.5452 -14.6948 1.0966 0.0000 -22.9100 -124.3991 -0.5667 -24.5315 -1.0434 0.0000 -0.0000 -67.0000 1.8120 -22.4254 4.7408 -0.0000 -0.0000 -67.0000 -0.7110 3.4351 11.7008 0.0000 -0.0000 -67.0000 0.1270 -0.7788 9.2605 0.0000 0.0000 -67.0000 -2.2288 10.5066 12.0480 0.0000 -0.0000 -67.0000 -13.5442 16.2903 40.6556 0.0000 0.0000 -67.0000 -3.4183 19.2400 10.2743 
1561.6900 567.4380 -588.8070 -12.5715 5.0942 -35.9675 -0.0000 -16.7008 118.8322 7.5732 8.2711 -7.1040 0.0000 11.8586 169.5859 2.7660 6.2325 -6.6522 56.3863 31.4764 31.7253 20.0867 -6.5442 8.3349 0.0000 -111.4369 141.3570 -29.2321 -15.7291 -13.3726 0.0000 -172.4081 -79.8464 0.4059 -35.5899 -9.5059 0.0000 -209.8784 7.1457 -1.3674 20.2242 -0.0502 0.0000 -64.9257 26.1658 -19.3255 44.0124 18.8252 -65.9554 20.9050 63.7279 0.8169 3.9426 -12.8962 0.0000 -111.4369 141.3570 14.1753 7.1613 16.5970 0.0000 -172.4081 -79.8464 -0.7475 -1.0771 22.5130 0.0000 -209.8784 7.1457 1.7455 -9.0713 0.0598 0.0000 -64.9257 26.1658 -0.8405 -5.9834 0.2175 -0.0000 4.1879 119.9269 1.9136 -2.0786 -14.4344 0.0000 -14.3102 88.8550 12.9622 35.1249 1.9525 -0.0000 72.0997 53.8668 -2.6150 5.1973 -8.7876 0.0000 88.9597 -13.6445 0.7757 -20.0898 -3.8896 -0.0000 19.3735 72.4546 3.0877 -3.5767 -24.6818 62.0074 55.4401 -1.8191 -11.7726 9.7048 0.1620 -37.7312 65.1525 -6.4373 5.5029 7.3336 6.5056 75.0000 -65.3041 -110.1607 18.4091 -17.7900 19.1570 0.0000 -209.4885 14.6489 0.0000 -6.8534 -0.0000 -0.0000 -168.5298 -141.4133 -0.0000 -10.8067 0.0000 0.0000 -96.5926 25.8819 -2.4108 22.0273 1.6745 -75.0000 -65.3041 -110.1607 15.8963 22.1976 -0.5698 -0.0000 -209.4885 14.6489 0.0000 -20.4625 0.0000 -0.0000 -168.5298 -141.4133 -0.0000 18.2953 -0.0000 -0.0000 -96.5926 25.8819 -13.6695 -12.5099 1.6674 -0.0000 -22.9100 -124.3991 -0.7978 -23.9978 -1.4908 0.0000 0.0000 -67.0000 1.4563 -23.1423 3.7011 0.0000 0.0000 -67.0000 -0.6178 3.1148 11.2247 -0.0000 -0.0000 -67.0000 0.1535 -0.8739 9.9602 0.0000 0.0000 -67.0000 -2.4733 11.2158 12.5207 0.0000 0.0000 -67.0000 -13.5369 15.9371 41.2451 0.0000 0.0000 -67.0000 -3.7368 19.0428 11.3195 
